<svg xmlns="http://www.w3.org/2000/svg" width="180" height="144" viewBox="0 0 180 144" fill="none"><g filter="url(#filter0_d_35_4)"><rect width="73.6741" height="73.6741" rx="13" transform="matrix(0.731873 0.681441 -0.731873 0.681441 83.7726 0.79541)" fill="#00BCD4"></rect></g><mask id="mask0_35_4" style="mask-type:luminance" maskUnits="userSpaceOnUse" x="35" y="5" width="98" height="92"><rect width="73.6741" height="73.6741" rx="13" transform="matrix(0.731873 0.681441 -0.731873 0.681441 83.7726 0.79541)" fill="white"></rect></mask><g mask="url(#mask0_35_4)"><path fill-rule="evenodd" clip-rule="evenodd" d="M96.6606 29.9999L115.456 37.4999L125.122 78.9999L83.7726 66.9999C83.7726 66.9999 82.1084 46.9026 85.3836 37.4999C88.6588 28.0972 96.6606 29.9999 96.6606 29.9999Z" fill="url(#paint0_linear_35_4)"></path><path fill-rule="evenodd" clip-rule="evenodd" d="M73.0325 29.9999L117.604 38.9999L93.9756 78.9999L60.1444 66.9999C60.1444 66.9999 60.6282 46.9026 63.9034 37.4999C67.1786 28.0972 73.0325 29.9999 73.0325 29.9999Z" fill="url(#paint1_linear_35_4)"></path><path fill-rule="evenodd" clip-rule="evenodd" d="M73.0325 30C68.9399 30 65.7343 31.082 63.5047 33.2156C61.275 35.3493 60.1444 38.4169 60.1444 42.3333V67H76.2545V42.3333H66.5885C66.5885 40.1118 67.084 38.5113 68.0612 37.576C69.0386 36.6409 70.711 36.1667 73.0325 36.1667" fill="white"></path><path fill-rule="evenodd" clip-rule="evenodd" d="M96.6606 30C92.5681 30 89.3625 31.082 87.1328 33.2156C84.9032 35.3493 83.7726 38.4169 83.7726 42.3333V67H99.8827V42.3333H90.2166C90.2166 40.1118 90.7122 38.5113 91.6894 37.576C92.6667 36.6409 94.3392 36.1667 96.6606 36.1667" fill="white"></path></g><defs><filter id="filter0_d_35_4" x="-11.5742" y="-41.0154" width="190.693" height="184.031" filterUnits="userSpaceOnUse" color-interpolation-filters="sRGB"><feGaussianBlur stdDeviation="24.5"></feGaussianBlur></filter><linearGradient id="paint0_linear_35_4" x1="59.7256" y1="71.0666" x2="117.354" y2="87.4764" gradientUnits="userSpaceOnUse"><stop stop-opacity="0.65"></stop><stop offset="1" stop-color="#EEEEEE" stop-opacity="0.01"></stop></linearGradient><linearGradient id="paint1_linear_35_4" x1="27.9443" y1="71.0666" x2="102.064" y2="100.003" gradientUnits="userSpaceOnUse"><stop stop-opacity="0.65"></stop><stop offset="1" stop-color="#EEEEEE" stop-opacity="0.01"></stop></linearGradient></defs></svg>